<mxfile host="app.diagrams.net" modified="2022-04-25T07:36:25.373Z" agent="5.0 (Windows NT 10.0; Win64; x64) AppleWebKit/537.36 (KHTML, like Gecko) Chrome/100.0.4896.127 Safari/537.36" etag="LhfuDew9fSS2_8ukiV88" version="17.4.6" type="github">
  <diagram id="C5RBs43oDa-KdzZeNtuy" name="Page-1">
    <mxGraphModel dx="2249" dy="1963" grid="1" gridSize="10" guides="1" tooltips="1" connect="1" arrows="1" fold="1" page="1" pageScale="1" pageWidth="827" pageHeight="1169" math="0" shadow="0">
      <root>
        <mxCell id="WIyWlLk6GJQsqaUBKTNV-0" />
        <mxCell id="WIyWlLk6GJQsqaUBKTNV-1" parent="WIyWlLk6GJQsqaUBKTNV-0" />
        <mxCell id="WIyWlLk6GJQsqaUBKTNV-2" value="" style="rounded=0;html=1;jettySize=auto;orthogonalLoop=1;fontSize=11;endArrow=block;endFill=0;endSize=8;strokeWidth=1;shadow=0;labelBackgroundColor=none;edgeStyle=orthogonalEdgeStyle;" parent="WIyWlLk6GJQsqaUBKTNV-1" source="WIyWlLk6GJQsqaUBKTNV-3" target="WIyWlLk6GJQsqaUBKTNV-6" edge="1">
          <mxGeometry relative="1" as="geometry" />
        </mxCell>
        <mxCell id="WIyWlLk6GJQsqaUBKTNV-3" value="시작" style="rounded=1;whiteSpace=wrap;html=1;fontSize=12;glass=0;strokeWidth=1;shadow=0;" parent="WIyWlLk6GJQsqaUBKTNV-1" vertex="1">
          <mxGeometry x="-810" y="400" width="70" height="40" as="geometry" />
        </mxCell>
        <mxCell id="tj6lg1TNi1CSCxYp7NLD-3" value="중수" style="edgeStyle=orthogonalEdgeStyle;rounded=0;orthogonalLoop=1;jettySize=auto;html=1;" edge="1" parent="WIyWlLk6GJQsqaUBKTNV-1" source="WIyWlLk6GJQsqaUBKTNV-6" target="tj6lg1TNi1CSCxYp7NLD-2">
          <mxGeometry y="-10" relative="1" as="geometry">
            <mxPoint as="offset" />
          </mxGeometry>
        </mxCell>
        <mxCell id="tj6lg1TNi1CSCxYp7NLD-17" value="초보" style="edgeStyle=orthogonalEdgeStyle;rounded=0;orthogonalLoop=1;jettySize=auto;html=1;" edge="1" parent="WIyWlLk6GJQsqaUBKTNV-1" source="WIyWlLk6GJQsqaUBKTNV-6" target="tj6lg1TNi1CSCxYp7NLD-16">
          <mxGeometry relative="1" as="geometry" />
        </mxCell>
        <mxCell id="WIyWlLk6GJQsqaUBKTNV-6" value="초보?" style="rhombus;whiteSpace=wrap;html=1;shadow=0;fontFamily=Helvetica;fontSize=12;align=center;strokeWidth=1;spacing=6;spacingTop=-4;" parent="WIyWlLk6GJQsqaUBKTNV-1" vertex="1">
          <mxGeometry x="-690" y="380" width="100" height="80" as="geometry" />
        </mxCell>
        <mxCell id="tj6lg1TNi1CSCxYp7NLD-7" value="" style="edgeStyle=orthogonalEdgeStyle;rounded=0;orthogonalLoop=1;jettySize=auto;html=1;" edge="1" parent="WIyWlLk6GJQsqaUBKTNV-1" source="tj6lg1TNi1CSCxYp7NLD-2" target="tj6lg1TNi1CSCxYp7NLD-6">
          <mxGeometry relative="1" as="geometry" />
        </mxCell>
        <mxCell id="tj6lg1TNi1CSCxYp7NLD-9" value="" style="edgeStyle=orthogonalEdgeStyle;rounded=0;orthogonalLoop=1;jettySize=auto;html=1;" edge="1" parent="WIyWlLk6GJQsqaUBKTNV-1" source="tj6lg1TNi1CSCxYp7NLD-2" target="tj6lg1TNi1CSCxYp7NLD-8">
          <mxGeometry relative="1" as="geometry" />
        </mxCell>
        <mxCell id="tj6lg1TNi1CSCxYp7NLD-2" value="5km 이상&lt;br&gt;가능?" style="rhombus;whiteSpace=wrap;html=1;shadow=0;fontFamily=Helvetica;fontSize=12;align=center;strokeWidth=1;spacing=6;spacingTop=-4;" vertex="1" parent="WIyWlLk6GJQsqaUBKTNV-1">
          <mxGeometry x="-690" y="580" width="100" height="80" as="geometry" />
        </mxCell>
        <mxCell id="tj6lg1TNi1CSCxYp7NLD-6" value="5km 이상&lt;br&gt;가능?" style="rhombus;whiteSpace=wrap;html=1;shadow=0;fontFamily=Helvetica;fontSize=12;align=center;strokeWidth=1;spacing=6;spacingTop=-4;" vertex="1" parent="WIyWlLk6GJQsqaUBKTNV-1">
          <mxGeometry x="-463" y="580" width="100" height="80" as="geometry" />
        </mxCell>
        <mxCell id="tj6lg1TNi1CSCxYp7NLD-8" value="5km 이상&lt;br&gt;가능?" style="rhombus;whiteSpace=wrap;html=1;shadow=0;fontFamily=Helvetica;fontSize=12;align=center;strokeWidth=1;spacing=6;spacingTop=-4;" vertex="1" parent="WIyWlLk6GJQsqaUBKTNV-1">
          <mxGeometry x="-610" y="770" width="100" height="80" as="geometry" />
        </mxCell>
        <mxCell id="tj6lg1TNi1CSCxYp7NLD-19" value="내륙" style="edgeStyle=orthogonalEdgeStyle;rounded=0;orthogonalLoop=1;jettySize=auto;html=1;" edge="1" parent="WIyWlLk6GJQsqaUBKTNV-1" source="tj6lg1TNi1CSCxYp7NLD-16" target="tj6lg1TNi1CSCxYp7NLD-18">
          <mxGeometry relative="1" as="geometry" />
        </mxCell>
        <mxCell id="tj6lg1TNi1CSCxYp7NLD-21" value="한강" style="edgeStyle=orthogonalEdgeStyle;rounded=0;orthogonalLoop=1;jettySize=auto;html=1;" edge="1" parent="WIyWlLk6GJQsqaUBKTNV-1" source="tj6lg1TNi1CSCxYp7NLD-16" target="tj6lg1TNi1CSCxYp7NLD-20">
          <mxGeometry relative="1" as="geometry" />
        </mxCell>
        <mxCell id="tj6lg1TNi1CSCxYp7NLD-16" value="한강go?" style="rhombus;whiteSpace=wrap;html=1;shadow=0;fontFamily=Helvetica;fontSize=12;align=center;strokeWidth=1;spacing=6;spacingTop=-4;" vertex="1" parent="WIyWlLk6GJQsqaUBKTNV-1">
          <mxGeometry x="-690" y="210" width="100" height="80" as="geometry" />
        </mxCell>
        <mxCell id="tj6lg1TNi1CSCxYp7NLD-18" value="도심?&lt;br&gt;자연?" style="rhombus;whiteSpace=wrap;html=1;shadow=0;fontFamily=Helvetica;fontSize=12;align=center;strokeWidth=1;spacing=6;spacingTop=-4;" vertex="1" parent="WIyWlLk6GJQsqaUBKTNV-1">
          <mxGeometry x="-440" y="380" width="100" height="80" as="geometry" />
        </mxCell>
        <mxCell id="tj6lg1TNi1CSCxYp7NLD-23" value="상수나들목" style="edgeStyle=orthogonalEdgeStyle;rounded=0;orthogonalLoop=1;jettySize=auto;html=1;" edge="1" parent="WIyWlLk6GJQsqaUBKTNV-1" source="tj6lg1TNi1CSCxYp7NLD-20" target="tj6lg1TNi1CSCxYp7NLD-22">
          <mxGeometry relative="1" as="geometry" />
        </mxCell>
        <mxCell id="tj6lg1TNi1CSCxYp7NLD-25" value="망원나들목" style="edgeStyle=orthogonalEdgeStyle;rounded=0;orthogonalLoop=1;jettySize=auto;html=1;" edge="1" parent="WIyWlLk6GJQsqaUBKTNV-1" source="tj6lg1TNi1CSCxYp7NLD-20" target="tj6lg1TNi1CSCxYp7NLD-24">
          <mxGeometry relative="1" as="geometry" />
        </mxCell>
        <mxCell id="tj6lg1TNi1CSCxYp7NLD-20" value="망원나들목?&lt;br&gt;상수나들목?" style="rhombus;whiteSpace=wrap;html=1;shadow=0;fontFamily=Helvetica;fontSize=12;align=center;strokeWidth=1;spacing=6;spacingTop=-4;" vertex="1" parent="WIyWlLk6GJQsqaUBKTNV-1">
          <mxGeometry x="-690" y="40" width="100" height="80" as="geometry" />
        </mxCell>
        <mxCell id="tj6lg1TNi1CSCxYp7NLD-37" value="한산" style="edgeStyle=orthogonalEdgeStyle;rounded=0;orthogonalLoop=1;jettySize=auto;html=1;" edge="1" parent="WIyWlLk6GJQsqaUBKTNV-1" source="tj6lg1TNi1CSCxYp7NLD-22" target="tj6lg1TNi1CSCxYp7NLD-36">
          <mxGeometry relative="1" as="geometry" />
        </mxCell>
        <mxCell id="tj6lg1TNi1CSCxYp7NLD-41" value="밀집" style="edgeStyle=orthogonalEdgeStyle;rounded=0;orthogonalLoop=1;jettySize=auto;html=1;" edge="1" parent="WIyWlLk6GJQsqaUBKTNV-1" source="tj6lg1TNi1CSCxYp7NLD-22" target="tj6lg1TNi1CSCxYp7NLD-40">
          <mxGeometry relative="1" as="geometry" />
        </mxCell>
        <mxCell id="tj6lg1TNi1CSCxYp7NLD-22" value="밀집?&lt;br&gt;한산?" style="rhombus;whiteSpace=wrap;html=1;shadow=0;fontFamily=Helvetica;fontSize=12;align=center;strokeWidth=1;spacing=6;spacingTop=-4;" vertex="1" parent="WIyWlLk6GJQsqaUBKTNV-1">
          <mxGeometry x="-50" y="210" width="100" height="80" as="geometry" />
        </mxCell>
        <mxCell id="tj6lg1TNi1CSCxYp7NLD-31" value="밀집" style="edgeStyle=orthogonalEdgeStyle;rounded=0;orthogonalLoop=1;jettySize=auto;html=1;" edge="1" parent="WIyWlLk6GJQsqaUBKTNV-1" source="tj6lg1TNi1CSCxYp7NLD-24" target="tj6lg1TNi1CSCxYp7NLD-30">
          <mxGeometry relative="1" as="geometry" />
        </mxCell>
        <mxCell id="tj6lg1TNi1CSCxYp7NLD-33" value="한산" style="edgeStyle=orthogonalEdgeStyle;rounded=0;orthogonalLoop=1;jettySize=auto;html=1;" edge="1" parent="WIyWlLk6GJQsqaUBKTNV-1" source="tj6lg1TNi1CSCxYp7NLD-24" target="tj6lg1TNi1CSCxYp7NLD-32">
          <mxGeometry relative="1" as="geometry" />
        </mxCell>
        <mxCell id="tj6lg1TNi1CSCxYp7NLD-24" value="밀집?&lt;br&gt;한산?" style="rhombus;whiteSpace=wrap;html=1;shadow=0;fontFamily=Helvetica;fontSize=12;align=center;strokeWidth=1;spacing=6;spacingTop=-4;" vertex="1" parent="WIyWlLk6GJQsqaUBKTNV-1">
          <mxGeometry x="-690" y="-120" width="100" height="80" as="geometry" />
        </mxCell>
        <mxCell id="tj6lg1TNi1CSCxYp7NLD-30" value="1. 망원 ~ 상수&lt;br&gt;2. 망원 ~ 선유도" style="whiteSpace=wrap;html=1;shadow=0;strokeWidth=1;spacing=6;spacingTop=-4;" vertex="1" parent="WIyWlLk6GJQsqaUBKTNV-1">
          <mxGeometry x="-240" y="-70" width="120" height="60" as="geometry" />
        </mxCell>
        <mxCell id="tj6lg1TNi1CSCxYp7NLD-32" value="망원 ~ 월드컵대교" style="whiteSpace=wrap;html=1;shadow=0;strokeWidth=1;spacing=6;spacingTop=-4;" vertex="1" parent="WIyWlLk6GJQsqaUBKTNV-1">
          <mxGeometry x="-473" y="-130" width="120" height="60" as="geometry" />
        </mxCell>
        <mxCell id="tj6lg1TNi1CSCxYp7NLD-36" value="상수 ~ 마포대교" style="whiteSpace=wrap;html=1;shadow=0;strokeWidth=1;spacing=6;spacingTop=-4;" vertex="1" parent="WIyWlLk6GJQsqaUBKTNV-1">
          <mxGeometry x="120" y="-90" width="120" height="60" as="geometry" />
        </mxCell>
        <mxCell id="tj6lg1TNi1CSCxYp7NLD-40" value="1. 상수 ~ 망원&lt;br&gt;2. 상수 ~ 선유도" style="whiteSpace=wrap;html=1;shadow=0;strokeWidth=1;spacing=6;spacingTop=-4;" vertex="1" parent="WIyWlLk6GJQsqaUBKTNV-1">
          <mxGeometry x="120" y="220" width="120" height="60" as="geometry" />
        </mxCell>
      </root>
    </mxGraphModel>
  </diagram>
</mxfile>
